<?xml version="1.0" encoding="utf-8"?>
<!-- Generator: Adobe Illustrator 26.5.0, SVG Export Plug-In . SVG Version: 6.00 Build 0)  -->
<svg class="house" version="1.1" id="Layer_1" xmlns="http://www.w3.org/2000/svg" xmlns:xlink="http://www.w3.org/1999/xlink" x="0px" y="0px"
	 viewBox="0 0 61.2 62.4" style="enable-background:new 0 0 61.2 62.4;" xml:space="preserve">
<g>
	<path d="M29.6,62.4c-7.3,0-14.7,0-22,0c-3.3,0-3.4-0.1-3.4-3.5c0-6.6,0-13.3,0-19.9c0-1.6-0.4-2.3-2.1-2.4c-1.9-0.1-2.4-1-1.6-2.7
		c3.5-7.7,6.9-15.3,10.6-22.9c0.4-0.7,1.8-1.3,2.8-1.3c5.6-0.1,11.3-0.1,16.9,0c2,0,2.7-0.6,2.6-2.6c-0.1-1.4-0.1-2.9,0-4.3
		c0.1-1.7,1-2.6,2.7-2.7c0.1,0,0.1,0,0.2,0c4.9-0.3,5.4,0.2,5.4,5.1c0,4.8-0.4,4.5,4.4,4.3c2.8-0.1,4.3,0.8,5.5,3.5
		c2.9,6.8,6,13.4,9.1,20.1c1.3,2.8,0.9,3.5-2.3,3.6c-3.2,0.1-3.2,0.1-3.2,3.4c0,6.4,0,12.7,0,19.1c0,3.1-0.2,3.3-3.2,3.3
		C44.4,62.4,37,62.4,29.6,62.4z M4,33.4c3.6-0.1,3.3,2.2,3.3,4.3c0,6.5,0,13,0,19.5c0,1.6,0.5,2.2,2.1,2.1c2.4-0.1,4.9-0.1,7.3,0
		c1.9,0.1,2.7-0.5,2.7-2.6c-0.1-3.1,0-6.3,0-9.4c0-2.3-0.1-4.6,0.1-6.8c0-0.6,0.9-1.5,1.3-1.5c0.5,0,1.2,0.7,1.6,1.3
		c0.3,0.5,0.1,1.3,0.1,1.9c0,4.9,0.1,9.9,0,14.8c0,1.6,0.4,2.3,2.2,2.3c8.3-0.1,16.7-0.1,25,0c1.9,0,2.5-0.7,2.4-2.5
		c-0.1-5.9-0.1-11.7,0-17.6c0-2.1-0.7-2.7-2.8-2.7c-8.2,0.1-16.4,0-24.6,0c-1.5,0-2.4-0.4-3.1-2c-1.7-4.1-3.6-8.1-5.5-12.1
		c-1.1-2.3-2.2-4.7-3.6-7.6C9.5,21.3,6.9,27.1,4,33.4z"/>
	<path d="M14.4,35.2c0,0.6,0,1.3,0,1.9c0.1,1.4-0.6,1.8-1.9,1.9c-1.4,0-1.9-0.6-1.9-1.9c0.1-1.3,0-2.6,0-3.8c0-1.3,0.2-2.2,1.8-2.2
		c1.7-0.1,2,0.9,2,2.3C14.3,34,14.4,34.6,14.4,35.2C14.4,35.2,14.4,35.2,14.4,35.2z"/>
</g>
</svg>
