<?xml version="1.0" encoding="utf-8"?>
<!-- Generator: Adobe Illustrator 26.5.0, SVG Export Plug-In . SVG Version: 6.00 Build 0)  -->
<svg version="1.1" id="Layer_1" xmlns="http://www.w3.org/2000/svg" xmlns:xlink="http://www.w3.org/1999/xlink" x="0px" y="0px"
	 viewBox="0 0 60 58.6" style="enable-background:new 0 0 60 58.6;" xml:space="preserve">
<style type="text/css">
	.st0{stroke:#000000;stroke-miterlimit:10;}
</style>
<g id="_x33_PFRSD_00000023971059582903664280000018322469061220139685_">
	<g>
		<path class="st0" d="M59.5,10.9c-0.1,2.4-0.9,4.6-2.7,6.5c-6.4,6.4-12.9,12.9-19.3,19.3c-4.2,4.2-8.5,8.4-12.7,12.6
			c-0.5,0.5-1.1,0.9-1.9,1.2c-6.3,2.5-12.5,4.9-18.8,7.4c-1.7,0.7-3.3-0.4-3.5-1.8c-0.1-0.6,0-1.1,0.2-1.7
			c2.6-5.4,5.1-10.8,7.7-16.1c0.3-0.7,0.7-1.4,1-2.2c0.3-0.6,0.7-1.2,1.2-1.7c2.8-2.7,5.6-5.5,8.4-8.2c5.4-5.2,10.7-10.5,16.1-15.7
			c2.6-2.5,5.1-5,7.7-7.5c3.7-3.5,9.5-3.4,13.1,0.2c1,1,2,2.1,2.6,3.4C59.2,8,59.5,9.3,59.5,10.9z M24.8,46.2
			c0.1-0.1,0.2-0.2,0.3-0.2c3.7-3.7,7.4-7.3,11.1-11c4-3.9,7.9-7.9,11.9-11.8c2.2-2.3,2.7-5,1.7-7.9c-0.4-1.2-1.3-2.2-2.3-3.1
			c-2.9-2.9-7.4-3-10.3-0.1c-2.4,2.3-4.8,4.6-7.2,7c-5.5,5.3-10.9,10.6-16.4,15.9c-0.1,0.1-0.1,0.1-0.2,0.3c1.4-0.2,2.8-0.4,4.1-0.7
			c1.2-0.2,2.2,0.6,2.1,1.8c0,1-0.1,2.1-0.2,3.1c0,0.5-0.1,1-0.1,1.6c1.2-0.3,2.4-0.5,3.6-0.8c1-0.2,1.9,0.4,2.1,1.3
			c0.1,0.4,0,0.9,0,1.3C24.8,43.9,24.8,45,24.8,46.2z M22.7,42.4c-0.1,0-0.2,0-0.3,0c-1.1,0.2-2.3,0.5-3.4,0.7
			c-1.1,0.2-2-0.5-1.9-1.6c0.1-1.5,0.2-2.9,0.2-4.4c0-0.2,0-0.4,0-0.6c-0.1,0-0.1,0-0.1,0c-1.9,0.3-3.7,0.6-5.6,0.9
			c-0.3,0-0.4,0.1-0.6,0.4c-0.9,2-1.9,3.9-2.8,5.8c-0.4,0.8-0.8,1.6-1.2,2.4c3,0.9,5.2,2.8,6.7,5.5c2.9-1.1,5.7-2.3,8.6-3.4
			c0.1,0,0.2-0.2,0.2-0.4c0.1-1.1,0.1-2.2,0.1-3.3C22.7,43.9,22.7,43.2,22.7,42.4z M41.1,7.8c3.2-0.2,5.8,0.8,8.1,3
			c2.2,2.2,3.3,4.8,3.1,8c1.1-1.1,2.2-2.1,3.2-3.2c2-2.3,2.4-4.9,1.4-7.7c-0.5-1.2-1.4-2.2-2.3-3.1C51.7,2,47.2,1.9,44.3,4.7
			c-0.9,0.9-1.8,1.8-2.7,2.6C41.4,7.4,41.3,7.6,41.1,7.8z"/>
		<path class="st0" d="M45.4,15.6c0,0.4-0.2,0.8-0.5,1.1c-2.3,2.3-4.6,4.6-6.9,6.9c-4,4-8.1,8.1-12.1,12.1c-0.1,0.1-0.2,0.2-0.4,0.4
			c-0.6,0.5-1.3,0.5-1.9-0.1c-0.5-0.5-0.5-1.3,0-1.8c0.6-0.6,1.2-1.2,1.8-1.8c4.6-4.6,9.2-9.2,13.8-13.8c1.3-1.3,2.6-2.6,3.9-3.9
			c0.4-0.4,1-0.5,1.5-0.3C45.2,14.6,45.4,15,45.4,15.6z"/>
	</g>
</g>
</svg>
